<svg width="22" height="20" viewBox="0 0 22 20" fill="none" xmlns="http://www.w3.org/2000/svg">
<path d="M17.875 19H3.25C2.65326 19 2.08097 18.7629 1.65901 18.341C1.23705 17.919 1 17.3467 1 16.75C1 16.1533 1.23705 15.581 1.65901 15.159C2.08097 14.7371 2.65326 14.5 3.25 14.5H7.75C8.34674 14.5 8.91903 14.2629 9.34099 13.841C9.76295 13.419 10 12.8467 10 12.25C10 11.6533 9.76295 11.081 9.34099 10.659C8.91903 10.2371 8.34674 10 7.75 10H4.375M20.125 16.75V3.25C20.125 1.98887 19.1361 1 17.875 1C16.6139 1 15.625 1.98887 15.625 3.25V16.75L17.875 19L20.125 16.75ZM15.625 5.5H20.125H15.625Z" stroke="#403939" stroke-width="2" stroke-linecap="round" stroke-linejoin="round"/>
</svg>
