<svg width="29" height="27" viewBox="0 0 29 27" fill="none" xmlns="http://www.w3.org/2000/svg">
<g clip-path="url(#clip0_42_157)">
<path d="M2.24808 2.52825L9.23989 2.52827V0.84668C9.23989 0.380508 9.63065 0.00292969 10.1131 0.00292969C10.5956 0.00292969 10.9863 0.380508 10.9863 0.84668V2.52785H17.972V0.84668C17.972 0.380508 18.3628 0.00292969 18.8452 0.00292969C19.3277 0.00292969 19.7184 0.380508 19.7184 0.84668V2.52785H26.698C27.6625 2.52785 28.4445 3.28343 28.4445 4.21535V25.3091C28.4445 26.241 27.6625 26.9966 26.698 26.9966H2.24808C1.28361 26.9966 0.501652 26.241 0.501652 25.3091V4.21535C0.501652 3.28383 1.28361 2.52825 2.24808 2.52825ZM2.24808 25.3091H26.698V4.21535H19.7184V5.06543C19.7184 5.53158 19.3277 5.90918 18.8452 5.90918C18.3628 5.90918 17.972 5.53158 17.972 5.06543V4.21577H10.9863V5.06585C10.9863 5.53202 10.5956 5.9096 10.1131 5.9096C9.63065 5.9096 9.23989 5.53202 9.23989 5.06585V4.21577H2.24808V25.3091ZM8.36057 13.497H6.61414C6.13213 13.497 5.74093 13.119 5.74093 12.6532V10.9657C5.74093 10.5 6.13213 10.122 6.61414 10.122H8.36057C8.84258 10.122 9.23378 10.5 9.23378 10.9657V12.6532C9.23378 13.119 8.84258 13.497 8.36057 13.497ZM8.36057 20.2466H6.61414C6.13213 20.2466 5.74093 19.869 5.74093 19.4028V17.7153C5.74093 17.2496 6.13213 16.8716 6.61414 16.8716H8.36057C8.84258 16.8716 9.23378 17.2496 9.23378 17.7153V19.4028C9.23378 19.8694 8.84258 20.2466 8.36057 20.2466ZM13.5998 16.8716H15.3463C15.8283 16.8716 16.2195 17.2496 16.2195 17.7153V19.4028C16.2195 19.869 15.8283 20.2466 15.3463 20.2466H13.5998C13.1178 20.2466 12.7266 19.869 12.7266 19.4028V17.7153C12.7266 17.25 13.1178 16.8716 13.5998 16.8716ZM13.5998 10.122H15.3463C15.8283 10.122 16.2195 10.5 16.2195 10.9657V12.6532C16.2195 13.119 15.8283 13.497 15.3463 13.497H13.5998C13.1178 13.497 12.7266 13.119 12.7266 12.6532V10.9657C12.7266 10.4996 13.1178 10.122 13.5998 10.122ZM20.5855 10.122H22.332C22.814 10.122 23.2052 10.5 23.2052 10.9657V12.6532C23.2052 13.119 22.814 13.497 22.332 13.497H20.5855C20.1035 13.497 19.7123 13.119 19.7123 12.6532V10.9657C19.7123 10.4996 20.1035 10.122 20.5855 10.122ZM20.5855 16.8716H22.332C22.814 16.8716 23.2052 17.2496 23.2052 17.7153V19.4028C23.2052 19.869 22.814 20.2466 22.332 20.2466H20.5855C20.1035 20.2466 19.7123 19.869 19.7123 19.4028V17.7153C19.7123 17.25 20.1035 16.8716 20.5855 16.8716Z" fill="#403939"/>
</g>
<defs>
<clipPath id="clip0_42_157">
<rect width="27.9428" height="27" fill="white" transform="matrix(-1 0 0 1 28.4445 0)"/>
</clipPath>
</defs>
</svg>
