<svg width="36" height="34" viewBox="0 0 36 34" fill="none" xmlns="http://www.w3.org/2000/svg">
<ellipse cx="18.1723" cy="17" rx="17.2001" ry="17" fill="white"/>
<g clip-path="url(#clip0_42_27)">
<path d="M24.4216 10C24.4216 8.89531 23.5325 8 22.4992 8C21.4119 8 20.5768 8.89531 20.5768 10C20.5768 11.1047 21.4119 12 22.4992 12C23.5325 12 24.4216 11.1047 24.4216 10ZM24.6348 23V20.5H25.1695C25.4975 20.5 25.7291 20.1656 25.6254 19.8406L24.6901 16.9219L25.551 18.1031C25.8718 18.5437 26.4746 18.6313 26.8975 18.2969C27.3206 17.9625 27.4035 17.3344 27.0828 16.8969L25.3137 14.4406C24.6396 13.5438 23.5865 13 22.4722 13C21.3548 13 20.3035 13.5438 19.6307 14.4406L17.8615 16.8969C17.5401 17.3344 17.6242 17.9625 18.0477 18.2969C18.4682 18.6313 19.072 18.5437 19.3934 18.1031L20.2524 16.925L19.3453 19.8406C19.2162 20.1656 19.4474 20.5 19.7748 20.5H20.3095V23C20.3095 23.5531 20.739 24 21.2707 24C21.8023 24 22.2319 23.5531 22.2319 23V20.5H22.7125V23C22.7125 23.5531 23.142 24 23.6736 24C24.2053 24 24.6348 23.5531 24.6348 23ZM14.7827 10C14.7827 8.89531 13.9206 8 12.8603 8C11.8 8 10.938 8.89531 10.938 10C10.938 11.1047 11.8 12 12.8603 12C13.9206 12 14.7827 11.1047 14.7827 10ZM13.1006 20V23C13.1006 23.5531 13.5302 24 14.0618 24C14.5935 24 15.023 23.5531 15.023 23V17.3906L15.4105 18.0312C15.6928 18.5 16.2876 18.6406 16.7621 18.3469C17.1857 18.0531 17.3208 17.4344 17.0385 16.9406L15.4856 14.4031C14.9569 13.5281 14.0348 12.9719 13.0466 12.9719H12.6741C11.6829 12.9719 10.7638 13.5281 10.2351 14.4031L8.68219 16.9406C8.39985 17.4344 8.53501 18.0531 8.98557 18.3469C9.43312 18.6406 10.0278 18.5 10.3102 18.0312L10.6977 17.3906V23C10.6977 23.5531 11.1272 24 11.6589 24C12.1905 24 12.62 23.5531 12.62 23V20H13.1006Z" fill="#4FA3A5"/>
</g>
<defs>
<clipPath id="clip0_42_27">
<rect width="19.2237" height="16" fill="white" transform="matrix(-1 0 0 1 27.2783 8)"/>
</clipPath>
</defs>
</svg>
