<svg width="36" height="34" viewBox="0 0 36 34" fill="none" xmlns="http://www.w3.org/2000/svg">
<ellipse cx="18.0101" cy="17" rx="17.2001" ry="17" fill="white"/>
<path d="M20.7125 24.4287H11.5111C11.2763 24.4287 11.0511 24.3365 10.8851 24.1724C10.7191 24.0083 10.6258 23.7858 10.6258 23.5537V11.4678C10.6258 11.2357 10.7191 11.0131 10.8851 10.8491C11.0511 10.685 11.2763 10.5928 11.5111 10.5928H12.7612M15.1599 10.5928H20.3123M22.3228 10.5928H23.7397C23.9745 10.5928 24.1997 10.685 24.3657 10.8491C24.5318 11.0131 24.625 11.2357 24.625 11.4678V19.6131" stroke="#4FA3A5"/>
<path d="M16.2253 15.4398H19.0246V18.2066H16.2253V15.4398ZM20.4867 15.4398H23.286V18.2066H20.4867V15.4398ZM11.9648 15.4398H14.7641V18.2066H11.9648V15.4398ZM16.2253 19.7439H19.0246V22.5107H16.2253V19.7439ZM11.9648 19.7439H14.7641V22.5107H11.9648V19.7439ZM13.3941 9.40625H14.4578C14.5752 9.40625 14.6878 9.45234 14.7708 9.53439C14.8538 9.61644 14.9004 9.72772 14.9004 9.84375V12.0501C14.9004 12.1661 14.8538 12.2774 14.7708 12.3594C14.6878 12.4415 14.5752 12.4876 14.4578 12.4876H13.3941C13.2767 12.4876 13.1641 12.4415 13.0811 12.3594C12.9981 12.2774 12.9514 12.1661 12.9514 12.0501V9.84375C12.9514 9.72772 12.9981 9.61644 13.0811 9.53439C13.1641 9.45234 13.2767 9.40625 13.3941 9.40625V9.40625ZM20.7926 9.40625H21.8558C21.9732 9.40625 22.0858 9.45234 22.1688 9.53439C22.2518 9.61644 22.2984 9.72772 22.2984 9.84375V12.0501C22.2984 12.1661 22.2518 12.2774 22.1688 12.3594C22.0858 12.4415 21.9732 12.4876 21.8558 12.4876H20.7926C20.6752 12.4876 20.5626 12.4415 20.4796 12.3594C20.3965 12.2774 20.3499 12.1661 20.3499 12.0501V9.84375C20.3499 9.72772 20.3965 9.61644 20.4796 9.53439C20.5626 9.45234 20.6752 9.40625 20.7926 9.40625V9.40625Z" stroke="#4FA3A5"/>
<path d="M23.2856 25.5938C25.0086 25.5938 26.4054 24.2132 26.4054 22.5103C26.4054 20.8073 25.0086 19.4268 23.2856 19.4268C21.5626 19.4268 20.1658 20.8073 20.1658 22.5103C20.1658 24.2132 21.5626 25.5938 23.2856 25.5938Z" stroke="#4FA3A5"/>
<path d="M24.6286 24.49L23.2471 23.5266L21.7956 24.3841L22.2958 22.7872L21.0219 21.6882L22.7128 21.6651L23.3767 20.1277L23.9212 21.7101L25.6059 21.8589L24.2514 22.8607L24.6286 24.49Z" stroke="#4FA3A5"/>
<path d="M10.7267 14.105H24.6281" stroke="#4FA3A5" stroke-miterlimit="5.571"/>
</svg>
