<svg width="13" height="25" viewBox="0 0 13 25" fill="none" xmlns="http://www.w3.org/2000/svg">
<path d="M12.9389 1.15938C12.9389 0.983346 12.8769 0.814522 12.7666 0.690047C12.6563 0.565572 12.5067 0.495642 12.3507 0.495642H9.41008C7.92931 0.412397 6.47954 0.993966 5.37753 2.11328C4.27552 3.23259 3.61086 4.79865 3.52878 6.46929V10.0535H0.58813C0.432148 10.0535 0.282555 10.1234 0.172259 10.2479C0.0619636 10.3724 0 10.5412 0 10.7172V14.1687C0 14.3447 0.0619636 14.5135 0.172259 14.638C0.282555 14.7625 0.432148 14.8324 0.58813 14.8324H3.52878V23.7265C3.52878 23.9025 3.59074 24.0714 3.70104 24.1958C3.81133 24.3203 3.96093 24.3902 4.11691 24.3902H7.64569C7.80167 24.3902 7.95127 24.3203 8.06156 24.1958C8.17186 24.0714 8.23382 23.9025 8.23382 23.7265V14.8324H11.3156C11.4464 14.8345 11.5741 14.7874 11.6785 14.6984C11.7829 14.6095 11.858 14.4838 11.892 14.3412L12.7389 10.8898C12.7623 10.7917 12.7654 10.6889 12.7481 10.5892C12.7307 10.4896 12.6934 10.3957 12.6388 10.315C12.5843 10.2342 12.514 10.1686 12.4335 10.1232C12.353 10.0779 12.2643 10.054 12.1743 10.0535H8.23382V6.46929C8.26308 6.14071 8.39981 5.83623 8.61731 5.61531C8.83481 5.3944 9.11747 5.2729 9.41008 5.27456H12.3507C12.5067 5.27456 12.6563 5.20463 12.7666 5.08016C12.8769 4.95568 12.9389 4.78686 12.9389 4.61082V1.15938Z" fill="#1CB9BD"/>
</svg>
