<svg width="14" height="25" viewBox="0 0 14 25" fill="none" xmlns="http://www.w3.org/2000/svg">
<path d="M13.5643 1.15938C13.5643 0.983346 13.5024 0.814522 13.3921 0.690047C13.2818 0.565572 13.1322 0.495642 12.9762 0.495642H10.0356C8.5548 0.412397 7.10503 0.993966 6.00302 2.11328C4.90101 3.23259 4.23635 4.79865 4.15427 6.46929V10.0535H1.21362C1.05764 10.0535 0.908043 10.1234 0.797748 10.2479C0.687452 10.3724 0.625488 10.5412 0.625488 10.7172V14.1687C0.625488 14.3447 0.687452 14.5135 0.797748 14.638C0.908043 14.7625 1.05764 14.8324 1.21362 14.8324H4.15427V23.7265C4.15427 23.9025 4.21623 24.0714 4.32653 24.1958C4.43682 24.3203 4.58642 24.3902 4.7424 24.3902H8.27118C8.42716 24.3902 8.57675 24.3203 8.68705 24.1958C8.79735 24.0714 8.85931 23.9025 8.85931 23.7265V14.8324H11.9411C12.0719 14.8345 12.1996 14.7874 12.304 14.6984C12.4084 14.6095 12.4835 14.4838 12.5175 14.3412L13.3644 10.8898C13.3878 10.7917 13.3909 10.6889 13.3736 10.5892C13.3562 10.4896 13.3188 10.3957 13.2643 10.315C13.2098 10.2342 13.1395 10.1686 13.059 10.1232C12.9785 10.0779 12.8898 10.054 12.7998 10.0535H8.85931V6.46929C8.88857 6.14071 9.0253 5.83623 9.2428 5.61531C9.4603 5.3944 9.74295 5.2729 10.0356 5.27456H12.9762C13.1322 5.27456 13.2818 5.20463 13.3921 5.08016C13.5024 4.95568 13.5643 4.78686 13.5643 4.61082V1.15938Z" fill="white"/>
</svg>
