<svg width="23" height="24" viewBox="0 0 23 24" fill="none" xmlns="http://www.w3.org/2000/svg">
<path fill-rule="evenodd" clip-rule="evenodd" d="M11.5 0C5.14625 0 0 5.37 0 12C0 17.31 3.29187 21.795 7.86312 23.385C8.43812 23.49 8.65375 23.13 8.65375 22.815C8.65375 22.53 8.63937 21.585 8.63937 20.58C5.75 21.135 5.0025 19.845 4.7725 19.17C4.64313 18.825 4.0825 17.76 3.59375 17.475C3.19125 17.25 2.61625 16.695 3.57937 16.68C4.485 16.665 5.13187 17.55 5.3475 17.91C6.3825 19.725 8.03562 19.215 8.69687 18.9C8.7975 18.12 9.09938 17.595 9.43 17.295C6.87125 16.995 4.1975 15.96 4.1975 11.37C4.1975 10.065 4.64312 8.985 5.37625 8.145C5.26125 7.845 4.85875 6.615 5.49125 4.965C5.49125 4.965 6.45437 4.65 8.65375 6.195C9.57375 5.925 10.5512 5.79 11.5287 5.79C12.5062 5.79 13.4837 5.925 14.4037 6.195C16.6031 4.635 17.5662 4.965 17.5662 4.965C18.1987 6.615 17.7962 7.845 17.6812 8.145C18.4144 8.985 18.86 10.05 18.86 11.37C18.86 15.975 16.1719 16.995 13.6131 17.295C14.03 17.67 14.3894 18.39 14.3894 19.515C14.3894 21.12 14.375 22.41 14.375 22.815C14.375 23.13 14.5906 23.505 15.1656 23.385C17.4485 22.5807 19.4323 21.0497 20.8377 19.0074C22.2431 16.965 22.9993 14.5143 23 12C23 5.37 17.8537 0 11.5 0Z" fill="white"/>
</svg>
