<svg width="24" height="24" viewBox="0 0 24 24" fill="none" xmlns="http://www.w3.org/2000/svg">
<path d="M11.8745 0C8.7537 0 8.36126 0.015 7.13507 0.072C5.90889 0.132 5.0737 0.333 4.34201 0.63C3.57452 0.931229 2.87934 1.40374 2.30507 2.0145C1.72012 2.61404 1.26735 3.33936 0.978262 4.14C0.693637 4.902 0.499574 5.775 0.443512 7.05C0.388887 8.3325 0.374512 8.7405 0.374512 12.0015C0.374512 15.2595 0.388887 15.6675 0.443512 16.947C0.501012 18.225 0.693637 19.0965 0.978262 19.86C1.27295 20.649 1.66539 21.318 2.30507 21.9855C2.94332 22.653 3.58445 23.064 4.34057 23.37C5.0737 23.667 5.90745 23.8695 7.1322 23.928C8.35982 23.985 8.75082 24 11.8745 24C14.9982 24 15.3878 23.985 16.6154 23.928C17.8387 23.868 18.6768 23.667 19.4084 23.37C20.1754 23.0686 20.8701 22.5961 21.4439 21.9855C22.0836 21.318 22.4761 20.649 22.7708 19.86C23.0539 19.0965 23.248 18.225 23.3055 16.947C23.3601 15.6675 23.3745 15.2595 23.3745 12C23.3745 8.7405 23.3601 8.3325 23.3055 7.0515C23.248 5.775 23.0539 4.902 22.7708 4.14C22.4817 3.33934 22.0289 2.61401 21.4439 2.0145C20.8699 1.40351 20.1746 0.930968 19.407 0.63C18.6739 0.333 17.8373 0.1305 16.6139 0.072C15.3863 0.015 14.9968 0 11.8716 0H11.8759H11.8745ZM10.8438 2.163H11.8759C14.9464 2.163 15.3101 2.1735 16.5219 2.232C17.6432 2.2845 18.2527 2.481 18.6581 2.6445C19.1943 2.862 19.5781 3.123 19.9806 3.543C20.3831 3.963 20.6318 4.362 20.8402 4.923C20.9983 5.3445 21.1852 5.9805 21.2355 7.1505C21.2916 8.415 21.3031 8.7945 21.3031 11.997C21.3031 15.1995 21.2916 15.5805 21.2355 16.845C21.1852 18.015 20.9969 18.6495 20.8402 19.0725C20.6558 19.5935 20.3615 20.0647 19.9791 20.451C19.5766 20.871 19.1943 21.1305 18.6566 21.348C18.2541 21.513 17.6446 21.708 16.5219 21.762C15.3101 21.819 14.9464 21.8325 11.8759 21.8325C8.80545 21.8325 8.44032 21.819 7.22851 21.762C6.10726 21.708 5.4992 21.513 5.09382 21.348C4.59429 21.1559 4.14238 20.8494 3.77132 20.451C3.38859 20.064 3.09386 19.5925 2.90882 19.071C2.75214 18.6495 2.56382 18.0135 2.51351 16.8435C2.45889 15.579 2.44739 15.1995 2.44739 11.994C2.44739 8.79 2.45889 8.412 2.51351 7.1475C2.56526 5.9775 2.75214 5.3415 2.91026 4.9185C3.1187 4.359 3.36882 3.9585 3.77132 3.5385C4.17382 3.1185 4.5562 2.859 5.09382 2.6415C5.4992 2.4765 6.10726 2.2815 7.22851 2.2275C8.28939 2.1765 8.70051 2.1615 10.8438 2.16V2.163V2.163ZM18.0141 4.155C17.8328 4.155 17.6534 4.19225 17.486 4.26461C17.3185 4.33698 17.1664 4.44305 17.0383 4.57677C16.9101 4.71048 16.8085 4.86923 16.7391 5.04394C16.6698 5.21864 16.6341 5.4059 16.6341 5.595C16.6341 5.7841 16.6698 5.97135 16.7391 6.14606C16.8085 6.32077 16.9101 6.47952 17.0383 6.61323C17.1664 6.74695 17.3185 6.85302 17.486 6.92539C17.6534 6.99775 17.8328 7.035 18.0141 7.035C18.3801 7.035 18.7311 6.88329 18.9899 6.61323C19.2487 6.34318 19.3941 5.97691 19.3941 5.595C19.3941 5.21309 19.2487 4.84682 18.9899 4.57677C18.7311 4.30671 18.3801 4.155 18.0141 4.155V4.155ZM11.8759 5.838C11.0926 5.82525 10.3147 5.97523 9.58742 6.27921C8.86016 6.58319 8.19813 7.03511 7.63985 7.60864C7.08158 8.18216 6.63822 8.86585 6.3356 9.61989C6.03297 10.3739 5.87712 11.1833 5.87712 12.0007C5.87712 12.8182 6.03297 13.6276 6.3356 14.3816C6.63822 15.1356 7.08158 15.8193 7.63985 16.3929C8.19813 16.9664 8.86016 17.4183 9.58742 17.7223C10.3147 18.0263 11.0926 18.1763 11.8759 18.1635C13.4264 18.1383 14.9051 17.4779 15.9929 16.3249C17.0808 15.1719 17.6905 13.6188 17.6905 12.0007C17.6905 10.3827 17.0808 8.82962 15.9929 7.67662C14.9051 6.52363 13.4264 5.86324 11.8759 5.838V5.838ZM11.8759 7.9995C12.8927 7.9995 13.8679 8.42098 14.5869 9.17122C15.3058 9.92146 15.7098 10.939 15.7098 12C15.7098 13.061 15.3058 14.0785 14.5869 14.8288C13.8679 15.579 12.8927 16.0005 11.8759 16.0005C10.8592 16.0005 9.88401 15.579 9.16503 14.8288C8.44606 14.0785 8.04214 13.061 8.04214 12C8.04214 10.939 8.44606 9.92146 9.16503 9.17122C9.88401 8.42098 10.8592 7.9995 11.8759 7.9995V7.9995Z" fill="#1CB9BD"/>
</svg>
