<svg width="23" height="24" viewBox="0 0 23 24" fill="none" xmlns="http://www.w3.org/2000/svg">
<path d="M11.5 0C8.37919 0 7.98675 0.015 6.76056 0.072C5.53438 0.132 4.69919 0.333 3.9675 0.63C3.20001 0.931229 2.50483 1.40374 1.93056 2.0145C1.34561 2.61404 0.892842 3.33936 0.60375 4.14C0.319125 4.902 0.125062 5.775 0.069 7.05C0.014375 8.3325 0 8.7405 0 12.0015C0 15.2595 0.014375 15.6675 0.069 16.947C0.1265 18.225 0.319125 19.0965 0.60375 19.86C0.898438 20.649 1.29088 21.318 1.93056 21.9855C2.56881 22.653 3.20994 23.064 3.96606 23.37C4.69919 23.667 5.53294 23.8695 6.75769 23.928C7.98531 23.985 8.37631 24 11.5 24C14.6237 24 15.0133 23.985 16.2409 23.928C17.4642 23.868 18.3022 23.667 19.0339 23.37C19.8009 23.0686 20.4956 22.5961 21.0694 21.9855C21.7091 21.318 22.1016 20.649 22.3962 19.86C22.6794 19.0965 22.8735 18.225 22.931 16.947C22.9856 15.6675 23 15.2595 23 12C23 8.7405 22.9856 8.3325 22.931 7.0515C22.8735 5.775 22.6794 4.902 22.3962 4.14C22.1072 3.33934 21.6544 2.61401 21.0694 2.0145C20.4953 1.40351 19.8001 0.930968 19.0325 0.63C18.2994 0.333 17.4627 0.1305 16.2394 0.072C15.0118 0.015 14.6223 0 11.4971 0H11.5014H11.5ZM10.4693 2.163H11.5014C14.5719 2.163 14.9356 2.1735 16.1474 2.232C17.2687 2.2845 17.8782 2.481 18.2836 2.6445C18.8197 2.862 19.2036 3.123 19.6061 3.543C20.0086 3.963 20.2572 4.362 20.4657 4.923C20.6238 5.3445 20.8107 5.9805 20.861 7.1505C20.9171 8.415 20.9286 8.7945 20.9286 11.997C20.9286 15.1995 20.9171 15.5805 20.861 16.845C20.8107 18.015 20.6224 18.6495 20.4657 19.0725C20.2813 19.5935 19.987 20.0647 19.6046 20.451C19.2021 20.871 18.8197 21.1305 18.2821 21.348C17.8796 21.513 17.2701 21.708 16.1474 21.762C14.9356 21.819 14.5719 21.8325 11.5014 21.8325C8.43094 21.8325 8.06581 21.819 6.854 21.762C5.73275 21.708 5.12469 21.513 4.71931 21.348C4.21978 21.1559 3.76787 20.8494 3.39681 20.451C3.01408 20.0641 2.71935 19.5925 2.53431 19.071C2.37762 18.6495 2.18931 18.0135 2.139 16.8435C2.08438 15.579 2.07288 15.1995 2.07288 11.994C2.07288 8.79 2.08438 8.412 2.139 7.1475C2.19075 5.9775 2.37762 5.3415 2.53575 4.9185C2.74419 4.359 2.99431 3.9585 3.39681 3.5385C3.79931 3.1185 4.18169 2.859 4.71931 2.6415C5.12469 2.4765 5.73275 2.2815 6.854 2.2275C7.91488 2.1765 8.326 2.1615 10.4693 2.16V2.163ZM17.6396 4.155C17.4583 4.155 17.2789 4.19225 17.1115 4.26461C16.944 4.33698 16.7919 4.44305 16.6638 4.57677C16.5356 4.71048 16.434 4.86923 16.3646 5.04394C16.2953 5.21864 16.2596 5.4059 16.2596 5.595C16.2596 5.7841 16.2953 5.97135 16.3646 6.14606C16.434 6.32077 16.5356 6.47952 16.6638 6.61323C16.7919 6.74695 16.944 6.85302 17.1115 6.92539C17.2789 6.99775 17.4583 7.035 17.6396 7.035C18.0056 7.035 18.3566 6.88329 18.6154 6.61323C18.8742 6.34318 19.0196 5.97691 19.0196 5.595C19.0196 5.21309 18.8742 4.84682 18.6154 4.57677C18.3566 4.30671 18.0056 4.155 17.6396 4.155ZM11.5014 5.838C10.7181 5.82525 9.94016 5.97523 9.21291 6.27921C8.48565 6.58319 7.82362 7.03511 7.26534 7.60863C6.70707 8.18216 6.26371 8.86585 5.96108 9.61989C5.65846 10.3739 5.50261 11.1833 5.50261 12.0007C5.50261 12.8182 5.65846 13.6276 5.96108 14.3816C6.26371 15.1356 6.70707 15.8193 7.26534 16.3929C7.82362 16.9664 8.48565 17.4183 9.21291 17.7223C9.94016 18.0263 10.7181 18.1763 11.5014 18.1635C13.0518 18.1383 14.5306 17.4779 15.6184 16.3249C16.7063 15.1719 17.316 13.6188 17.316 12.0007C17.316 10.3827 16.7063 8.82962 15.6184 7.67662C14.5306 6.52363 13.0518 5.86324 11.5014 5.838ZM11.5014 7.9995C12.5182 7.9995 13.4934 8.42098 14.2124 9.17122C14.9313 9.92146 15.3352 10.939 15.3352 12C15.3352 13.061 14.9313 14.0785 14.2124 14.8288C13.4934 15.579 12.5182 16.0005 11.5014 16.0005C10.4846 16.0005 9.5095 15.579 8.79052 14.8288C8.07154 14.0785 7.66762 13.061 7.66762 12C7.66762 10.939 8.07154 9.92146 8.79052 9.17122C9.5095 8.42098 10.4846 7.9995 11.5014 7.9995Z" fill="white"/>
</svg>
