<svg width="31" height="29" viewBox="0 0 31 29" fill="none" xmlns="http://www.w3.org/2000/svg">
<path d="M1.36813 15.7011L16.5548 28.7605C16.6714 28.8601 16.8198 28.9155 16.976 28.9147L20.5194 28.8985C20.8157 28.8972 20.9501 28.5282 20.725 28.337L6.64775 16.2295L30.0784 16.1222C30.2545 16.1214 30.398 15.9766 30.3972 15.8004L30.3862 13.3981C30.3854 13.2219 30.2406 13.0785 30.0644 13.0793L6.63783 13.1865L20.6036 0.950581C20.827 0.753366 20.6892 0.389637 20.3929 0.390994L16.7293 0.407767C16.6533 0.408115 16.5773 0.43649 16.5215 0.488797L1.35926 13.7632C1.2212 13.8844 1.11075 14.0338 1.03535 14.2013C0.959961 14.3688 0.921384 14.5505 0.922225 14.7342C0.923066 14.9179 0.963305 15.0992 1.04023 15.266C1.11715 15.4329 1.22897 15.5812 1.36813 15.7011Z" fill="#1CB9BD"/>
</svg>
