<svg width="24" height="25" viewBox="0 0 24 25" fill="none" xmlns="http://www.w3.org/2000/svg">
<path d="M5.31997 8.25446V24.3902H0.37856V8.25446H5.31997ZM5.63442 3.27207C5.6444 4.06448 5.39234 4.72662 4.87823 5.25851C4.36413 5.7904 3.68781 6.05634 2.84926 6.05634H2.81932C2.00074 6.05634 1.34188 5.7904 0.842753 5.25851C0.343621 4.72662 0.0940552 4.06448 0.0940552 3.27207C0.0940552 2.46881 0.351108 1.80395 0.865214 1.27749C1.37932 0.751024 2.05065 0.487793 2.87921 0.487793C3.70777 0.487793 4.37162 0.751024 4.87075 1.27749C5.36988 1.80395 5.62444 2.46881 5.63442 3.27207ZM23.0941 15.1419V24.3902H18.1676V15.7606C18.1676 14.6208 17.9655 13.728 17.5612 13.0822C17.1569 12.4363 16.5255 12.1134 15.667 12.1134C15.0381 12.1134 14.5115 12.3006 14.0872 12.6751C13.663 13.0496 13.346 13.5136 13.1364 14.0672C13.0266 14.3929 12.9717 14.8325 12.9717 15.3861V24.3902H8.04523C8.06519 20.0591 8.07517 16.5476 8.07517 13.8556C8.07517 11.1636 8.07018 9.55704 8.0602 9.03601L8.04523 8.25446H12.9717V10.5991H12.9417C13.1414 10.2518 13.346 9.94782 13.5556 9.6873C13.7653 9.42678 14.0473 9.14456 14.4017 8.84062C14.7561 8.53668 15.1903 8.30059 15.7044 8.13234C16.2185 7.96409 16.79 7.87996 17.4189 7.87996C19.126 7.87996 20.4986 8.49598 21.5368 9.72801C22.575 10.96 23.0941 12.7647 23.0941 15.1419Z" fill="white"/>
</svg>
