<svg width="24" height="25" viewBox="0 0 24 25" fill="none" xmlns="http://www.w3.org/2000/svg">
<path d="M5.69448 8.25446V24.3902H0.753072V8.25446H5.69448ZM6.00893 3.27207C6.01891 4.06448 5.76685 4.72662 5.25275 5.25851C4.73864 5.7904 4.06232 6.05635 3.22378 6.05635H3.19383C2.37525 6.05635 1.7164 5.7904 1.21726 5.25851C0.718133 4.72662 0.468567 4.06448 0.468567 3.27207C0.468567 2.46881 0.72562 1.80395 1.23973 1.27749C1.75383 0.751024 2.42516 0.487793 3.25372 0.487793C4.08228 0.487793 4.74613 0.751024 5.24526 1.27749C5.74439 1.80395 5.99895 2.46881 6.00893 3.27207ZM23.4686 15.1419V24.3902H18.5421V15.7606C18.5421 14.6208 18.34 13.728 17.9357 13.0822C17.5314 12.4363 16.9 12.1134 16.0415 12.1134C15.4126 12.1134 14.886 12.3006 14.4617 12.6751C14.0375 13.0496 13.7205 13.5136 13.5109 14.0672C13.4011 14.3929 13.3462 14.8325 13.3462 15.3861V24.3902H8.41974C8.4397 20.0591 8.44969 16.5476 8.44969 13.8556C8.44969 11.1636 8.4447 9.55704 8.43471 9.03601L8.41974 8.25446H13.3462V10.5991H13.3162C13.5159 10.2518 13.7205 9.94782 13.9302 9.6873C14.1398 9.42678 14.4218 9.14456 14.7762 8.84062C15.1306 8.53668 15.5648 8.30059 16.0789 8.13234C16.593 7.96409 17.1645 7.87996 17.7934 7.87996C19.5005 7.87996 20.8731 8.49598 21.9113 9.72801C22.9495 10.96 23.4686 12.7647 23.4686 15.1419Z" fill="#1CB9BD"/>
</svg>
