<svg width="22" height="20" viewBox="0 0 22 20" fill="none" xmlns="http://www.w3.org/2000/svg">
<path d="M12.2863 8.45633C11.4386 7.63756 10.2891 7.17761 9.0905 7.17761C7.89191 7.17761 6.74238 7.63756 5.89467 8.45633L2.69781 11.5443C1.85009 12.3634 1.37384 13.4744 1.37384 14.6328C1.37384 15.7912 1.85009 16.9022 2.69781 17.7213C3.54553 18.5404 4.69529 19.0006 5.89416 19.0006C7.09302 19.0006 8.24278 18.5404 9.0905 17.7213L10.6884 16.1773" stroke="#4D727A" stroke-width="2" stroke-linecap="round" stroke-linejoin="round"/>
<path d="M9.09064 11.5443C9.93835 12.3631 11.0879 12.823 12.2865 12.823C13.4851 12.823 14.6346 12.3631 15.4823 11.5443L18.6792 8.4563C19.5269 7.63718 20.0031 6.52621 20.0031 5.3678C20.0031 4.20939 19.5269 3.09842 18.6792 2.2793C17.8314 1.46018 16.6817 1 15.4828 1C14.2839 1 13.1342 1.46018 12.2865 2.2793L10.6886 3.8233" stroke="#4D727A" stroke-width="2" stroke-linecap="round" stroke-linejoin="round"/>
</svg>
