<svg width="25" height="25" viewBox="0 0 25 25" fill="none" xmlns="http://www.w3.org/2000/svg">
<path d="M22.3942 24.3902H2.48824C1.82832 24.3902 1.19543 24.0754 0.728789 23.5151C0.262153 22.9548 0 22.1948 0 21.4024V3.34563C0.0279089 2.57596 0.302333 1.84898 0.765978 1.31646C1.22962 0.783948 1.84665 0.487065 2.48824 0.487794H22.3942C23.0541 0.487794 23.687 0.80258 24.1536 1.3629C24.6203 1.92322 24.8824 2.68318 24.8824 3.4756V21.4024C24.8824 22.1948 24.6203 22.9548 24.1536 23.5151C23.687 24.0754 23.0541 24.3902 22.3942 24.3902ZM2.48824 6.26621V21.4024H22.3942V6.26621L12.4412 14.2317L2.48824 6.26621ZM3.48354 3.4756L12.4412 10.6463L21.3989 3.4756H3.48354Z" fill="white"/>
</svg>
