<svg width="36" height="34" viewBox="0 0 36 34" fill="none" xmlns="http://www.w3.org/2000/svg">
<ellipse cx="17.8526" cy="17" rx="17.2001" ry="17" fill="white"/>
<path d="M23.2975 12.7149C23.2734 12.6448 23.2314 12.5337 23.1713 12.3818C23.1112 12.2299 23.0691 12.1305 23.0451 12.0838C22.5402 10.9384 21.801 10.0911 20.8274 9.54184C19.8539 8.99254 18.8382 8.7179 17.7805 8.7179C16.4102 8.7179 15.1722 9.15616 14.0664 10.0327C12.9606 10.9092 12.3115 12.1422 12.1192 13.7317V14.3978L12.1553 14.5731V14.8186C12.2033 15.1926 12.3296 15.6191 12.5339 16.0983C12.7382 16.5775 12.9245 16.9631 13.0928 17.2553C13.2611 17.5475 13.5315 17.9916 13.9041 18.5877C14.2767 19.1837 14.5231 19.5752 14.6433 19.7622C15.3405 20.9075 16.4102 22.6022 17.8526 24.8461C18.0449 24.5422 18.706 23.4436 19.8358 21.5503C19.8839 21.4802 19.974 21.34 20.1063 21.1296C20.2385 20.9192 20.3286 20.7556 20.3767 20.6387C20.4248 20.5686 20.5029 20.4693 20.6111 20.3407C20.7193 20.2122 20.7974 20.1128 20.8455 20.0427C21.0137 19.7388 21.3803 19.1603 21.9453 18.3072C22.5102 17.454 22.9249 16.7353 23.1893 16.1509C23.4537 15.5665 23.586 14.9939 23.586 14.4329V13.6615C23.586 13.4044 23.4898 13.0889 23.2975 12.7149ZM17.8165 16.186C16.879 16.186 16.2299 15.7418 15.8693 14.8536C15.8453 14.7368 15.8333 14.5614 15.8333 14.3277V13.8719C15.8333 13.2876 16.0376 12.8376 16.4463 12.522C16.855 12.2065 17.3357 12.0487 17.8886 12.0487C18.4896 12.0487 18.9884 12.2474 19.3851 12.6448C19.7817 13.0421 19.9801 13.533 19.9801 14.1173C19.9801 14.7017 19.7697 15.1926 19.349 15.5899C18.9283 15.9873 18.4175 16.186 17.8165 16.186Z" fill="#4FA3A5"/>
</svg>
