<svg width="31" height="29" viewBox="0 0 31 29" fill="none" xmlns="http://www.w3.org/2000/svg">
<path d="M29.9541 13.5311L14.8273 0.402246C14.7112 0.302148 14.5631 0.246094 14.4069 0.246094H10.8635C10.5672 0.246094 10.4311 0.614453 10.6553 0.806641L24.677 12.9785H1.24609C1.06992 12.9785 0.925781 13.1227 0.925781 13.2988V15.7012C0.925781 15.8773 1.06992 16.0215 1.24609 16.0215H24.6729L10.6513 28.1934C10.4271 28.3896 10.5632 28.7539 10.8595 28.7539H14.523C14.5991 28.7539 14.6752 28.7259 14.7312 28.6738L29.9541 15.4689C30.0927 15.3484 30.2038 15.1995 30.28 15.0324C30.3562 14.8652 30.3956 14.6837 30.3956 14.5C30.3956 14.3163 30.3562 14.1348 30.28 13.9676C30.2038 13.8005 30.0927 13.6516 29.9541 13.5311Z" fill="#1CB9BD"/>
</svg>
