<svg width="24" height="25" viewBox="0 0 24 25" fill="none" xmlns="http://www.w3.org/2000/svg">
<path d="M23.8448 3.3271C22.999 3.79384 22.0786 4.12975 21.1305 4.26057C22.1148 3.51251 22.852 2.3307 23.2036 0.936862C22.2799 1.63975 21.268 2.13263 20.2128 2.39364C19.7718 1.79051 19.2384 1.31004 18.6459 0.982147C18.0533 0.654259 17.4144 0.485983 16.7688 0.487808C14.1567 0.487808 12.056 3.19628 12.056 6.51999C12.056 6.98672 12.1002 7.45346 12.1721 7.90251C8.26091 7.64086 4.77262 5.25061 2.45355 1.591C2.03099 2.51426 1.80955 3.56551 1.81228 4.63537C1.81228 6.7286 2.64427 8.57432 3.91299 9.65983C3.16531 9.62217 2.43515 9.35928 1.78188 8.89255V8.9668C1.78188 11.898 3.40163 14.3272 5.56039 14.8858C5.15506 15.0205 4.73809 15.0894 4.31931 15.0909C4.0125 15.0909 3.72227 15.052 3.42927 14.999C4.02632 17.3892 5.76493 19.1253 7.83523 19.1819C6.21548 20.8049 4.18663 21.7596 1.98365 21.7596C1.58839 21.7596 1.22353 21.7419 0.844849 21.6853C2.9345 23.4002 5.41389 24.3902 8.084 24.3902C16.7522 24.3902 21.4954 15.2041 21.4954 7.2307C21.4954 6.96904 21.4954 6.70739 21.4816 6.44573C22.3992 5.58652 23.2036 4.52223 23.8448 3.3271Z" fill="#1CB9BD"/>
</svg>
