<svg width="24" height="25" viewBox="0 0 24 25" fill="none" xmlns="http://www.w3.org/2000/svg">
<path d="M23.4703 3.3271C22.6245 3.79384 21.7041 4.12975 20.756 4.26057C21.7403 3.51251 22.4774 2.3307 22.8291 0.936862C21.9054 1.63975 20.8935 2.13263 19.8383 2.39364C19.3973 1.79051 18.8639 1.31004 18.2714 0.982147C17.6788 0.654259 17.0399 0.485983 16.3943 0.487808C13.7822 0.487808 11.6815 3.19628 11.6815 6.51999C11.6815 6.98672 11.7257 7.45345 11.7976 7.90251C7.88639 7.64086 4.39811 5.25061 2.07904 1.591C1.65648 2.51426 1.43504 3.56551 1.43777 4.63537C1.43777 6.7286 2.26976 8.57432 3.53848 9.65983C2.7908 9.62217 2.06064 9.35928 1.40736 8.89255V8.9668C1.40736 11.898 3.02712 14.3272 5.18588 14.8858C4.78055 15.0205 4.36358 15.0894 3.9448 15.0909C3.63799 15.0909 3.34776 15.052 3.05476 14.999C3.65181 17.3892 5.39042 19.1253 7.46072 19.1819C5.84097 20.8049 3.81212 21.7596 1.60914 21.7596C1.21388 21.7596 0.849017 21.7419 0.470337 21.6853C2.55999 23.4002 5.03938 24.3902 7.70949 24.3902C16.3777 24.3902 21.1209 15.2041 21.1209 7.2307C21.1209 6.96904 21.1209 6.70739 21.107 6.44573C22.0247 5.58652 22.8291 4.52223 23.4703 3.3271Z" fill="white"/>
</svg>
